HIERARCHY
ROOT hip
{
	OFFSET	0.00  0.00  0.00 
	CHANNELS 6 Xposition Yposition Zposition Xrotation Zrotation Yrotation
	JOINT abdomen
	{
		OFFSET	0.000000 0.000000 0.000000
		CHANNELS 3 Xrotation Zrotation Yrotation
		JOINT chest
		{
			OFFSET	0.000000 5.018152 -1.882228
			CHANNELS 3 Xrotation Zrotation Yrotation
			JOINT neckDummy
			{
				OFFSET	0.000000 8.316447 0.784897
				CHANNELS 3 Xrotation Yrotation Zrotation
				JOINT neck
				{
					OFFSET	0.000000 2.280413 -0.392801
					CHANNELS 3 Xrotation Zrotation Yrotation
					JOINT head
					{
						OFFSET	0.000000 3.496879 0.529469
						CHANNELS 3 Xrotation Zrotation Yrotation
						JOINT figureHair
						{
							OFFSET	0.000000 4.699570 0.720622
							CHANNELS 3 Zrotation Yrotation Xrotation
							End Site
							{
								OFFSET 0.000000 -6.419331 0.000000
							}
						}
					}
				}
			}
			JOINT lCollar
			{
				OFFSET	0.599237 8.316447 0.784897
				CHANNELS 3 Yrotation Zrotation Xrotation
				JOINT lShldr
				{
					OFFSET	6.421198 0.010146 -0.332128
					CHANNELS 3 Zrotation Yrotation Xrotation
					JOINT lForeArm
					{
						OFFSET	10.552783 0.025574 0.125508
						CHANNELS 3 Yrotation Zrotation Xrotation
						JOINT lHand
						{
							OFFSET	11.035963 0.319619 0.041520
							CHANNELS 3 Zrotation Yrotation Xrotation
							End Site
							{
								OFFSET 10.353753 0.000000 0.000000
							}
						}
					}
				}
			}
			JOINT rCollar
			{
				OFFSET	-0.599237 8.316447 0.784897
				CHANNELS 3 Yrotation Zrotation Xrotation
				JOINT rShldr
				{
					OFFSET	-6.421198 0.010146 -0.332128
					CHANNELS 3 Zrotation Yrotation Xrotation
					JOINT rForeArm
					{
						OFFSET	-10.552783 0.025574 0.125508
						CHANNELS 3 Yrotation Zrotation Xrotation
						JOINT rHand
						{
							OFFSET	-11.035963 0.319619 0.041520
							CHANNELS 3 Zrotation Yrotation Xrotation
							End Site
							{
								OFFSET -10.353753 0.000000 0.000000
							}
						}
					}
				}
			}
		}
	}
	JOINT lThigh
	{
		OFFSET	4.500466 -6.400484 -1.832696
		CHANNELS 3 Xrotation Zrotation Yrotation
		JOINT lShin
		{
			OFFSET	-1.359117 -18.918689 1.179887
			CHANNELS 3 Xrotation Zrotation Yrotation
			JOINT lFoot
			{
				OFFSET	-0.652380 -17.215186 -0.312137
				CHANNELS 3 Xrotation Yrotation Zrotation
				End Site
				{
					OFFSET 0.000000 0.000000 10.353752
				}
			}
		}
	}
	JOINT rThigh
	{
		OFFSET	-4.500466 -6.400484 -1.832696
		CHANNELS 3 Xrotation Zrotation Yrotation
		JOINT rShin
		{
			OFFSET	1.359117 -18.918689 1.179887
			CHANNELS 3 Xrotation Zrotation Yrotation
			JOINT rFoot
			{
				OFFSET	0.652380 -17.215186 -0.312137
				CHANNELS 3 Xrotation Yrotation Zrotation
				End Site
				{
					OFFSET 0.000000 0.000000 10.353752
				}
			}
		}
	}
}
MOTION
Frames:     18
Frame Time: 0.041667
-1.030235 38.239994 3.246704 0.000000 0.000000 0.000000 7.494950 -1.834100 25.876600 4.005920 -1.662210 -0.359863 0.000000 0.000000 0.000000 0.000000 0.000000 0.000000 0.000000 -2.000000 -40.000000 0.000000 0.000000 0.000000 1.258640 -5.645530 -0.192706 -59.063301 26.722200 20.892000 -18.425400 -8.322710 0.606650 4.281310 -12.170300 -2.137530 -3.912550 6.516140 -0.109663 35.609501 23.486401 -36.083302 43.465401 10.973400 -43.508701 -19.979601 4.896300 7.057800 -18.812157 6.838138 -0.497601 50.883366 -4.084847 -4.408406 -32.259968 1.056453 -1.178905 -18.668419 -3.661290 -0.213087 50.683498 3.928161 4.126522 -32.388042 -1.970322 -2.124798 
-0.646104 38.993259 2.394810 0.000000 0.000000 0.000000 5.886860 -1.886540 25.310579 3.097596 -1.767068 -0.273250 0.000000 0.000000 0.000000 0.000000 0.000000 0.000000 0.000000 -1.600000 -38.400002 0.000000 0.000000 0.000000 1.411932 -5.654704 -0.168265 -59.527340 27.906540 20.898399 -20.050440 -8.847188 0.386280 5.362628 -11.509939 -1.819904 -3.910800 6.510712 -0.098910 29.310781 27.409380 -43.850563 55.105362 12.863600 -39.019939 -19.979601 4.896300 1.057800 -18.050709 5.804963 -0.378316 45.630764 -3.890972 -3.924589 -27.807140 1.447675 -0.735453 -17.949625 -4.135159 -0.167881 45.432823 3.755979 3.603152 -27.846535 -1.963631 -1.121436 
-0.261972 39.746525 1.542917 0.000000 0.000000 0.000000 4.278770 -1.938980 24.744560 2.189272 -1.871926 -0.186638 0.000000 0.000000 0.000000 0.000000 0.000000 0.000000 0.000000 -1.200000 -36.800003 0.000000 0.000000 0.000000 1.565224 -5.663878 -0.143824 -59.991379 29.090881 20.904800 -21.675480 -9.371666 0.165910 6.443946 -10.849579 -1.502278 -3.909050 6.505284 -0.088158 23.012062 31.332359 -51.617821 66.745323 14.753799 -34.531181 -19.979601 4.896300 -4.942200 -16.896029 4.890838 -0.207973 39.956074 -3.735005 -3.379826 -23.324945 1.633799 -0.346475 -16.801338 -4.585492 -0.117633 39.867599 3.610730 3.049414 -23.433378 -1.898827 -0.198341 
0.122160 40.499790 0.691023 0.000000 0.000000 0.000000 2.670680 -1.991420 24.178539 1.280948 -1.976784 -0.100025 0.000000 0.000000 0.000000 0.000000 0.000000 0.000000 0.000000 -0.800000 -35.200001 0.000000 0.000000 0.000000 1.718516 -5.673052 -0.119382 -60.455418 30.275221 20.911200 -23.300520 -9.896144 -0.054460 7.525264 -10.189219 -1.184652 -3.907300 6.499856 -0.077405 16.713341 35.255341 -59.385082 78.385284 16.643999 -30.042421 -19.979601 4.896300 -10.942200 -15.162322 4.033744 -0.023027 33.248245 -3.598436 -2.727653 -18.366514 1.644961 -0.017452 -15.116701 -5.009357 -0.053700 33.220898 3.490860 2.365570 -18.463097 -1.771316 0.718126 
0.506291 41.253056 -0.160870 0.000000 0.000000 0.000000 1.062590 -2.043860 23.612518 0.372624 -2.081642 -0.013413 0.000000 0.000000 0.000000 0.000000 0.000000 0.000000 0.000000 -0.400000 -33.599998 0.000000 0.000000 0.000000 1.871808 -5.682226 -0.094941 -60.919456 31.459560 20.917599 -24.925560 -10.420622 -0.274830 8.606582 -9.528860 -0.867026 -3.905550 6.494428 -0.066653 10.414620 39.178322 -67.152344 90.025238 18.534199 -25.553661 -19.979601 4.896300 -16.942200 -12.499353 3.200382 0.132473 24.783394 -3.435825 -1.881592 -12.601025 1.473912 0.260312 -12.602962 -5.398959 -0.002443 24.894703 3.346417 1.550933 -12.637106 -1.583919 1.611692 
0.890423 42.006317 -1.012764 0.000000 0.000000 0.000000 -0.545500 -2.096300 23.046499 -0.535700 -2.186500 0.073200 0.000000 0.000000 0.000000 0.000000 0.000000 0.000000 0.000000 0.000000 -32.000000 0.000000 0.000000 0.000000 2.025100 -5.691400 -0.070500 -61.383499 32.643902 20.924000 -26.550600 -10.945100 -0.495200 9.687900 -8.868500 -0.549400 -3.903800 6.489000 -0.055900 4.115900 43.101299 -74.919601 101.665199 20.424400 -21.064899 -19.979601 4.896300 -22.942200 -8.892345 2.352173 0.250144 14.363864 -3.154311 -0.884675 -5.824296 1.155896 0.537238 -9.096490 -5.748862 0.012472 14.735886 3.105542 0.543407 -5.981556 -1.311097 2.470668 
1.060419 42.447491 -1.533444 0.000000 0.000000 0.000000 -1.839489 -2.150604 23.151609 -1.000594 -2.222902 0.111351 0.000000 0.000000 0.000000 0.000000 0.000000 0.000000 0.000000 0.272443 -32.098438 0.000000 0.000000 0.000000 2.129664 -5.697701 -0.054176 -61.632427 33.728981 20.978958 -26.880999 -11.055026 -0.537919 10.001528 -8.665243 -0.372632 -3.913706 6.491960 -0.053004 4.218554 40.745712 -75.105225 116.176689 15.780814 -17.907658 -19.979601 4.896300 -27.028847 -6.127463 1.911622 0.270707 6.906291 -2.837203 -0.176588 -1.143731 0.851370 0.555355 -6.364257 -5.808372 -0.036680 7.334445 2.816939 -0.129035 -1.308970 -1.113971 2.887669 
1.009919 42.582451 -1.722635 0.000000 0.000000 0.000000 -2.887620 -2.210906 23.992172 -1.018682 -2.187737 0.099742 0.000000 0.000000 0.000000 0.000000 0.000000 0.000000 0.000000 0.426515 -34.045834 0.000000 0.000000 0.000000 2.189043 -5.701348 -0.045458 -61.666317 34.785873 21.090599 -25.831711 -10.723469 -0.391123 9.505651 -8.942777 -0.335663 -3.936977 6.504230 -0.058417 11.270242 31.409306 -67.083061 130.522263 7.390594 -15.963108 -19.979599 4.896300 -29.339926 -5.256108 1.919522 0.281553 4.450187 -2.695276 0.097662 1.642665 0.625831 0.391333 -5.555322 -5.655689 -0.086286 5.023940 2.706978 -0.286425 1.366288 -1.026700 2.863815 
0.762484 42.323219 -1.437822 0.000000 0.000000 0.000000 -3.057341 -2.241280 25.082499 -0.568805 -2.100378 0.044162 0.000000 0.000000 0.000000 0.000000 0.000000 0.000000 0.000000 0.367330 -36.720318 0.000000 0.000000 0.000000 2.166676 -5.700097 -0.049736 -61.459923 35.181831 21.193468 -23.998344 -10.138503 -0.138216 8.478101 -9.546247 -0.463838 -3.960011 6.518686 -0.069096 21.214436 20.514297 -55.460922 127.108498 7.817500 -16.422304 -19.979601 4.896300 -28.452141 -7.473539 2.499816 0.323606 10.000434 -3.052737 -0.356717 -2.887614 0.769421 0.243912 -7.605849 -5.444723 -0.093922 10.220762 3.011287 0.241028 -2.955152 -1.236320 2.282681 
0.341674 41.581814 -0.536491 0.000000 0.000000 0.000000 -1.716100 -2.205800 25.936899 0.370200 -1.980200 -0.049600 0.000000 0.000000 0.000000 0.000000 0.000000 0.000000 0.000000 0.000000 -39.000000 0.000000 0.000000 0.000000 2.026000 -5.691700 -0.072400 -60.987999 34.284100 21.222099 -21.976500 -9.488200 0.137400 7.196700 -10.320800 -0.782500 -3.969200 6.528200 -0.082000 29.994600 13.482900 -44.846600 98.583504 20.949400 -20.476299 -19.979601 4.896300 -22.942200 -11.774549 3.504640 0.254123 21.960909 -3.551655 -1.480124 -10.503862 1.060266 0.019232 -11.835239 -5.136309 -0.092255 22.037807 3.452941 1.390509 -10.561909 -1.550487 1.292364 
-0.204543 40.368507 0.993079 0.000000 0.000000 0.000000 1.390734 -2.086655 26.204834 1.733282 -1.848269 -0.170491 0.000000 0.000000 0.000000 0.000000 0.000000 0.000000 0.000000 -0.700000 -40.049999 0.000000 0.000000 0.000000 1.757494 -5.675555 -0.114694 -60.274803 31.801453 21.136374 -20.276205 -8.934584 0.364923 5.927188 -11.113355 -1.280056 -3.955938 6.527879 -0.094311 34.547688 14.022287 -38.772144 71.302841 24.017220 -28.478783 -19.979601 4.896299 -12.442198 -15.284982 4.728273 -0.009900 34.629520 -3.807075 -2.717288 -19.617741 1.286225 -0.432097 -15.294560 -4.587194 -0.137076 34.576664 3.666644 2.594401 -19.636086 -1.818460 0.017535 
-0.730578 39.086575 2.639432 0.000000 0.000000 0.000000 5.006095 -1.938499 26.076340 3.110550 -1.732424 -0.286387 0.000000 0.000000 0.000000 0.000000 0.000000 0.000000 0.000000 -1.475758 -40.183334 0.000000 0.000000 0.000000 1.459800 -5.657622 -0.161286 -59.542641 28.808712 20.997498 -19.065142 -8.535488 0.523955 4.886955 -11.777925 -1.797153 -3.931610 6.521757 -0.104109 35.784546 18.979465 -36.466610 52.828911 17.762497 -37.433968 -19.979601 4.896300 -0.805835 -17.231487 5.985355 -0.304748 44.777130 -3.963847 -3.766377 -27.777065 1.245072 -0.903111 -17.187506 -4.000503 -0.181331 44.704033 3.821472 3.549667 -27.876284 -1.957865 -1.286533 
-1.066437 38.237553 3.760317 0.000000 0.000000 0.000000 7.495000 -1.834100 25.876600 4.005900 -1.662200 -0.359900 0.000000 0.000000 0.000000 0.000000 0.000000 0.000000 0.000000 -2.000000 -40.000000 0.000000 0.000000 0.000000 1.258600 -5.645500 -0.192700 -59.063301 26.722200 20.892000 -18.425400 -8.322700 0.606700 4.281300 -12.170300 -2.137500 -3.912600 6.516100 -0.109700 35.609501 23.486401 -36.083302 43.465401 10.973400 -43.508701 -19.979601 4.896300 7.057800 -18.003061 6.902480 -0.465042 50.873531 -4.085511 -4.407843 -33.052364 1.023338 -1.229613 -17.854605 -3.602229 -0.195230 50.663845 3.935483 4.118455 -33.180664 -1.970128 -2.168774 
-1.114465 38.122429 3.951790 0.000000 0.000000 0.000000 7.840145 -1.819534 25.844856 4.128166 -1.652813 -0.369846 0.000000 0.000000 0.000000 0.000000 0.000000 0.000000 0.000000 -2.072349 -39.964584 0.000000 0.000000 0.000000 1.230855 -5.643845 -0.197036 -58.997719 26.431879 20.877010 -18.343723 -8.295444 0.617176 4.201322 -12.222351 -2.184151 -3.909853 6.515286 -0.110412 35.547947 24.151184 -36.073860 42.288635 9.941675 -44.347900 -19.979601 4.896300 8.143026 -18.194723 7.037563 -0.495901 51.861271 -4.107160 -4.524692 -33.844097 1.012000 -1.274235 -18.042864 -3.553819 -0.207734 51.650826 3.966814 4.238720 -33.983490 -1.960437 -2.337005 
-1.066375 38.239994 3.763133 0.000000 0.000000 0.000000 7.494950 -1.834100 25.876600 4.005920 -1.662210 -0.359863 0.000000 0.000000 0.000000 0.000000 0.000000 0.000000 0.000000 -2.000000 -40.000000 0.000000 0.000000 0.000000 1.258640 -5.645530 -0.192706 -59.063301 26.722200 20.892000 -18.425400 -8.322710 0.606650 4.281310 -12.170300 -2.137530 -3.912550 6.516140 -0.109663 35.609501 23.486401 -36.083302 43.465401 10.973400 -43.508701 -19.979601 4.896300 7.057800 -18.000273 6.940312 -0.478796 50.911621 -4.104856 -4.420017 -33.090633 1.052821 -1.259528 -17.854605 -3.602229 -0.195230 50.700191 3.974264 4.158575 -33.219402 -1.977713 -2.210840 
-1.055533 38.239994 3.608206 0.000000 0.000000 0.000000 7.494950 -1.834100 25.876600 4.005920 -1.662210 -0.359863 0.000000 0.000000 0.000000 0.000000 0.000000 0.000000 0.000000 -2.000000 -40.000000 0.000000 0.000000 0.000000 1.258640 -5.645530 -0.192706 -59.063301 26.722200 20.892000 -18.425400 -8.322710 0.606650 4.281310 -12.170300 -2.137530 -3.912550 6.516140 -0.109663 35.609501 23.486401 -36.083302 43.465401 10.973400 -43.508701 -19.979601 4.896300 7.057800 -18.407244 6.920225 -0.500532 50.920761 -4.104390 -4.440001 -32.708561 1.086871 -1.233850 -18.257189 -3.630883 -0.199334 50.709610 3.980980 4.162437 -32.818745 -1.967631 -2.200377 
-1.044691 38.239994 3.453279 0.000000 0.000000 0.000000 7.494950 -1.834100 25.876600 4.005920 -1.662210 -0.359863 0.000000 0.000000 0.000000 0.000000 0.000000 0.000000 0.000000 -2.000000 -40.000000 0.000000 0.000000 0.000000 1.258640 -5.645530 -0.192706 -59.063301 26.722200 20.892000 -18.425400 -8.322710 0.606650 4.281310 -12.170300 -2.137530 -3.912550 6.516140 -0.109663 35.609501 23.486401 -36.083302 43.465401 10.973400 -43.508701 -19.979601 4.896300 7.057800 -18.493515 6.914792 -0.508902 50.930340 -4.114252 -4.435652 -32.630337 1.088495 -1.234175 -18.345377 -3.637096 -0.202336 50.718880 3.984224 4.174407 -32.740059 -1.975270 -2.201169 
-1.033849 38.239994 3.298353 0.000000 0.000000 0.000000 7.494950 -1.834100 25.876600 4.005920 -1.662210 -0.359863 0.000000 0.000000 0.000000 0.000000 0.000000 0.000000 0.000000 -2.000000 -40.000000 0.000000 0.000000 0.000000 1.258640 -5.645530 -0.192706 -59.063301 26.722200 20.892000 -18.425400 -8.322710 0.606650 4.281310 -12.170300 -2.137530 -3.912550 6.516140 -0.109663 35.609501 23.486401 -36.083302 43.465401 10.973400 -43.508701 -19.979601 4.896300 7.057800 -18.739883 6.897906 -0.513721 50.940395 -4.103752 -4.441445 -32.395622 1.095127 -1.224886 -18.589432 -3.658952 -0.210070 50.728172 3.987121 4.186220 -32.495647 -1.971168 -2.195342 
